<?xml version="1.0" encoding="UTF-8" standalone="no"?>
<!DOCTYPE svg PUBLIC "-//W3C//DTD SVG 1.1//EN"
 "http://www.w3.org/Graphics/SVG/1.1/DTD/svg11.dtd">
<!-- Generated by graphviz version 2.38.0 (20140413.2041)
 -->
<!-- Title: controllers_diagram Pages: 1 -->
<svg width="324pt" height="207pt"
 viewBox="0.00 0.00 324.00 207.00" xmlns="http://www.w3.org/2000/svg" xmlns:xlink="http://www.w3.org/1999/xlink">
<g id="graph0" class="graph" transform="scale(1 1) rotate(0) translate(124 158)">
<title>controllers_diagram</title>
<polygon fill="none" stroke="none" points="-124,49 -124,-158 200,-158 200,49 -124,49"/>
<!-- _diagram_info -->
<g id="node1" class="node"><title>_diagram_info</title>
<text text-anchor="start" x="-112" y="-18.6" font-family="Times,serif" font-size="13.00">Controllers diagram</text>
<text text-anchor="start" x="-112" y="-4.6" font-family="Times,serif" font-size="13.00">Date: Jun 02 2016 &#45; 08:57</text>
<text text-anchor="start" x="-112" y="9.4" font-family="Times,serif" font-size="13.00">Migration version: 20160418121527</text>
<text text-anchor="start" x="-112" y="23.4" font-family="Times,serif" font-size="13.00">Generated by RailRoady 1.4.2</text>
<text text-anchor="start" x="-112" y="37.4" font-family="Times,serif" font-size="13.00">http://railroady.prestonlee.com</text>
</g>
<!-- ApplicationController -->
<g id="node2" class="node"><title>ApplicationController</title>
<path fill="none" stroke="black" d="M72,-60.5C72,-60.5 184,-60.5 184,-60.5 190,-60.5 196,-66.5 196,-72.5 196,-72.5 196,-141.5 196,-141.5 196,-147.5 190,-153.5 184,-153.5 184,-153.5 72,-153.5 72,-153.5 66,-153.5 60,-147.5 60,-141.5 60,-141.5 60,-72.5 60,-72.5 60,-66.5 66,-60.5 72,-60.5"/>
<text text-anchor="middle" x="128" y="-138.3" font-family="Times,serif" font-size="14.00">ApplicationController</text>
<polyline fill="none" stroke="black" points="60,-130.5 196,-130.5 "/>
<text text-anchor="start" x="68" y="-115.3" font-family="Times,serif" font-size="14.00">access_denied</text>
<polyline fill="none" stroke="black" points="60,-107.5 196,-107.5 "/>
<polyline fill="none" stroke="black" points="60,-83.5 196,-83.5 "/>
<text text-anchor="start" x="68" y="-68.3" font-family="Times,serif" font-size="14.00">_layout</text>
</g>
</g>
</svg>
